<svg width="400" height="400" xmlns="http://www.w3.org/2000/svg">
 <title>ioc</title>

 <g>
  <title>Layer 1</title>
  <g transform="rotate(-0.021669 200 200)" stroke="null">

   <g stroke="null">
    <path stroke="null" fill="#9252f8" transform="translate(0 0)" d="m10.0401,12.22441l193.07849,0c62.28229,-0.25996 124.56378,-0.08222 186.84607,-0.12371l0,375.81981l-379.9293,0q0.03483,-187.85314 0,-375.70158m6.77936,7.47454l0,361.06884c42.43652,0.1566 84.87858,0 127.3151,0.07125c79.49862,-0.0415 158.99725,0.083 238.49587,-0.06499l0,-361.0751q-182.88847,-0.00626 -365.79989,0.01801l-0.01108,-0.01801z" class="cls-1"/>
    <path stroke="null" fill="#9252f8" transform="translate(0 0)" d="m63.67029,45.30467l66.61348,0l0,109.28124l76.77738,0l0,-73.83709l-29.35745,0l0,-35.31339c20.90957,-0.07047 41.82547,0 62.73503,-0.02897c-0.1306,10.00833 0.40842,20.01745 0,30.0203c-0.32373,29.03371 -0.06807,58.07213 -0.14801,87.10506c14.89956,0 29.79833,-0.0415 44.6971,0.02975c6.51579,6.83248 12.93501,13.80667 19.57032,20.56242c0.82318,1.05862 2.30411,1.91679 2.27008,3.4366c0.03958,35.02524 -0.02849,70.05049 0.03404,105.07887l23.26355,0l0,27.17017l-51.50733,0c-0.12348,-16.05154 0.20263,-32.09917 0.13535,-48.14914l0,-78.71597c-13.06482,-0.0783 -26.13439,0 -39.19841,-0.03524c0.03404,33.25723 -0.09736,66.51993 0.06253,99.78264c6.29179,-0.03524 12.544,0 18.81283,0l0,27.11458l-52.34872,0q0.04037,-64.67596 0,-129.36681l-75.79827,0l0,94.5146l29.73817,0c0.1583,11.56494 0.26753,23.14241 0.0277,34.68699q-31.45577,-0.03602 -62.90759,0c-0.25012,-29.54501 -0.14801,-59.09003 -0.16464,-88.63582l0,-149.25662l-33.30714,0l0,-35.44415z" class="cls-1"/>
    <path stroke="null" fill="#9252f8" transform="translate(0 0)" d="m161.96196,333.81898c1.5585,0 3.11621,0 4.68025,0.08222c-0.50816,2.17988 -1.51259,4.19454 -1.97009,6.38616c-0.2707,10.25733 0.18601,20.52718 -0.243,30.77589c-0.05066,1.99666 -2.0999,2.74677 -3.62437,3.21031c-0.10686,-9.5401 -0.11794,-19.08019 -0.15197,-28.61481a18.36879,18.17113 0 0 1 -4.75941,2.58391c2.46163,-4.58291 5.14883,-9.18148 6.06858,-14.42368z" class="cls-1"/>
    <path stroke="null" fill="#9252f8" transform="translate(0 0)" d="m253.44577,333.81898c1.42473,0 2.85659,0.05324 4.29083,0.09396q-0.71237,1.77272 -1.41128,3.61512c3.14391,0 6.29416,-0.03524 9.44441,0.0783l0,1.83692c-3.50643,0.12998 -7.0184,-0.30146 -10.50821,0.10649c-1.77854,2.88223 -3.51672,6.65082 -7.03423,7.40172a110.84992,109.65708 0 0 0 5.21849,-13.13251z" class="cls-1"/>
    <path stroke="null" fill="#9252f8" transform="translate(0 0)" d="m269.05532,334.16507l4.36919,0c-0.4852,1.18155 -0.97119,2.3631 -1.44531,3.54465c2.2582,0.0783 4.51641,0.0783 6.77461,0.07047l0,2.10314c-2.60252,-0.13546 -5.21057,-0.12998 -7.81309,-0.05873c-1.84582,2.87049 -3.44944,6.49892 -6.98358,7.4072a125.9244,124.56935 0 0 0 5.09818,-13.06674z" class="cls-1"/>
    <path stroke="null" fill="#9252f8" transform="translate(0 0)" d="m77.1,334.46261c1.47381,-0.05873 2.94683,-0.06499 4.42064,-0.05873c-0.4575,1.18077 -0.92054,2.30907 -1.37804,3.46713c3.16133,-0.05324 6.33216,0.11197 9.49823,0.08848l0,1.83771c-3.53413,0.08848 -7.07935,0 -10.60636,0.24195c-1.66219,2.95348 -3.44865,6.5271 -6.84743,7.4902c1.7176,-4.31826 3.74468,-8.53002 4.91296,-13.06674z" class="cls-1"/>
    <path stroke="null" fill="#9252f8" transform="translate(0 0)" d="m92.28609,334.27939c1.44531,-0.04698 2.88984,-0.10022 4.34069,-0.12371c-0.44563,1.18155 -0.89204,2.43357 -1.34558,3.65036c2.2582,0 4.51641,0 6.77382,-0.10022l0,2.09688c-2.57956,0.0783 -5.171,-0.05324 -7.74502,0.12998c-2.05795,2.72328 -3.45498,6.53885 -7.03977,7.4902a107.75666,106.59711 0 0 0 5.01586,-13.14347z" class="cls-1"/>
    <path stroke="null" fill="#9252f8" transform="translate(0 0)" d="m170.92987,335.93779l3.64099,0l0.56435,1.18077l10.61744,0l0.22004,-1.18077l3.74864,0c0,8.18707 0.04512,16.3804 -0.03404,24.56747c-0.0562,2.02015 -2.07141,3.04196 -3.76526,3.19621c0,-1.08759 0,-2.1744 -0.03324,-3.24946c-3.62437,0.05951 -7.25982,-0.14172 -10.8731,0.17774c-0.75669,1.67719 -2.1371,3.00673 -3.9853,3.05371c-0.19234,-9.2449 -0.04512,-18.49529 -0.09023,-27.76368m3.94256,2.97149l0,8.09859c3.57529,-0.0783 7.16167,-0.12685 10.72588,-0.09239l0,-8.03595c-3.58083,-0.16678 -7.16167,-0.0783 -10.7425,-0.09788m0.01662,10.4335l0,9.02253c3.57371,-0.05168 7.1585,0.09788 10.72588,0.06342l0,-9.14938c-3.54047,0.05794 -7.11338,0.12137 -10.69264,0.09239l-0.03324,-0.02897z" class="cls-1"/>
    <path stroke="null" fill="#9252f8" transform="translate(0 0)" d="m122.25302,336.09987c1.05747,0 2.10307,0 3.16608,0.05794c-1.36695,3.82262 -3.54205,7.45966 -6.87909,9.70061c2.63418,-0.03445 5.26281,0 7.89778,0.0462c-0.71949,4.63302 -4.20693,8.1949 -7.74897,10.72008c2.54632,0.0689 5.09184,0.04072 7.6437,0.0462l0,1.86511c-3.74705,0.10257 -7.4949,0.12058 -11.23958,0.0877l-0.37755,-1.46186a21.00376,20.77774 0 0 0 8.29829,-9.45005c-2.66188,-0.03524 -5.31822,0 -7.97535,0l0,-1.96377c3.64495,-1.92853 5.9364,-5.70417 7.2147,-9.64815z" class="cls-1"/>
    <path stroke="null" fill="#9252f8" transform="translate(0 0)" d="m202.6698,336.48119c11.89495,-0.30772 23.78357,-0.05324 35.67853,-0.09474c-0.04512,0.48468 -0.14168,1.45325 -0.1868,1.93715c-4.98657,0.13624 -9.97314,0.03602 -14.95418,0.06499c-1.23081,1.90269 -2.3991,3.84611 -3.52226,5.81927l2.91833,0c0,5.74723 0.12427,11.49525 0,17.24249c-0.13535,2.72328 0.56435,5.79421 -1.04401,8.18159c-0.60472,1.05157 -1.76192,1.4094 -2.82256,1.70146c-0.15276,-8.51828 -0.09102,-17.03656 -0.07361,-25.55484c-3.9014,7.11827 -10.72588,13.27345 -18.77642,13.9116c3.84995,-3.54465 8.60382,-6.07844 11.74219,-10.44994c2.45371,-3.54387 4.73091,-7.20362 7.02315,-10.85711c-5.31822,-0.03524 -10.63011,0.08222 -15.94278,-0.07125c-0.00554,-0.45492 -0.0277,-1.37652 -0.03958,-1.83066z" class="cls-1"/>
    <path stroke="null" fill="#9252f8" transform="translate(0 0)" d="m128.32793,337.11855l3.6497,0l0,3.54465l8.39011,0c2.5289,0.09631 4.97866,-0.7368 7.51389,-0.7047c-0.02849,8.9732 0.23746,17.95189 -0.03404,26.92509c0,2.3631 -1.87432,4.02306 -3.82779,4.76692c-0.28732,-9.65207 -0.13535,-19.30413 -0.16305,-28.94523c-3.87844,-0.08848 -7.76243,-0.10022 -11.64088,-0.0783c0,2.27071 0.37281,4.7262 -0.63322,6.85283c-0.62609,1.2575 -2.08882,1.45247 -3.23415,1.8839c-0.06016,-4.81468 -0.0095,-9.62936 -0.02058,-14.24516z" class="cls-1"/>
    <path stroke="null" fill="#9252f8" transform="translate(0 0)" d="m255.9161,339.48165l3.87844,0a41.12339,40.68087 0 0 0 2.16718,6.79959c-3.34734,-0.36096 -5.57705,-3.49767 -6.04563,-6.79959z" class="cls-1"/>
    <path stroke="null" fill="#9252f8" transform="translate(0 0)" d="m79.71676,340.2396q1.96534,-0.06421 3.95206,-0.08222a70.83228,70.07006 0 0 0 2.0999,6.78706c-3.17874,-0.63188 -5.41953,-3.49845 -6.05196,-6.70485z" class="cls-1"/>
    <path stroke="null" fill="#9252f8" transform="translate(0 0)" d="m95.25825,340.21611c1.54109,-0.03524 3.08693,-0.05324 4.63514,-0.11197a35.71731,35.33296 0 0 0 2.61201,6.77532c-3.54917,-0.23647 -6.36619,-3.15472 -7.24715,-6.66335z" class="cls-1"/>
    <path stroke="null" fill="#9252f8" transform="translate(0 0)" d="m271.40614,340.08613a15.79239,15.62246 0 0 1 4.71429,0a44.9583,44.47451 0 0 0 2.44421,6.72834a8.91093,8.81504 0 0 1 -7.1585,-6.72834z" class="cls-1"/>
    <path stroke="null" fill="#9252f8" transform="translate(0 0)" d="m76.64013,345.31423c1.52447,-0.08848 3.0426,-0.13624 4.57261,-0.14172a36.83098,36.43465 0 0 0 2.60252,6.8223c-3.54522,-0.25369 -6.37331,-3.1602 -7.17512,-6.68057z" class="cls-1"/>
    <path stroke="null" fill="#9252f8" transform="translate(0 0)" d="m257.07251,343.53056a43.35943,42.89285 0 0 0 2.7157,8.13774a8.78032,8.68584 0 0 1 -7.16246,-7.20988l4.44676,-0.92786z" class="cls-1"/>
    <path stroke="null" fill="#9252f8" transform="translate(0 0)" d="m85.6864,348.86985c5.68469,0.06499 11.37572,-0.08222 17.06041,-0.1566c0,7.04154 0.03324,14.08307 0,21.11835c-0.02849,2.26209 -1.85216,3.82183 -3.62991,4.72542c-0.36172,-7.92085 -0.02849,-15.85422 -0.29919,-23.78212q-6.56961,0.17696 -13.13131,0.1566l0,-2.06164z" class="cls-1"/>
    <path stroke="null" fill="#9252f8" transform="translate(0 0)" d="m261.51056,348.3421l17.20051,0c-0.17493,7.0893 0.09657,14.23106 -0.28178,21.3368c-0.12981,2.20337 -1.99859,3.60181 -3.72568,4.48347c-0.13614,-7.91537 0.13535,-15.82525 0.1124,-23.74062c-4.38027,-0.03524 -8.76687,0.05324 -13.14793,-0.08848l-0.15751,-1.99117z" class="cls-1"/>
    <path stroke="null" fill="#9252f8" transform="translate(0 0)" d="m223.87381,349.63171c4.93354,-0.05951 10.52246,0.67338 13.93074,4.85461c-1.38358,1.6537 -2.82256,3.26042 -4.31853,4.78493a20.39191,20.17248 0 0 0 -3.3877,-4.83191c-1.84107,-1.90661 -4.40718,-2.8282 -6.22451,-4.80763z" class="cls-1"/>
    <path stroke="null" fill="#9252f8" transform="translate(0 0)" d="m74.27507,350.7052l3.86657,0c0.13614,5.35182 0.06807,10.71538 0.09023,16.07346a22.51319,22.27093 0 0 1 -0.31661,4.47799c-0.4852,1.70068 -2.0437,2.60505 -3.43203,3.40214c-0.08944,-7.98662 -0.14089,-15.96698 -0.20817,-23.9536z" class="cls-1"/>
    <path stroke="null" fill="#9252f8" transform="translate(0 0)" d="m250.26545,350.11482l3.95364,0c-0.04512,6.49892 0.11873,12.99783 -0.28811,19.44585c-0.09023,2.20963 -1.95901,3.54465 -3.65207,4.48425c-0.04195,-7.98114 -0.01741,-15.9568 -0.01346,-23.93011z" class="cls-1"/>
    <path stroke="null" fill="#9252f8" transform="translate(0 0)" d="m135.87032,351.29637l3.32438,0c0.2145,3.00046 -0.1306,6.76357 -3.21832,8.03908q-0.14247,-4.02228 -0.10606,-8.03908z" class="cls-1"/>
    <path stroke="null" fill="#9252f8" transform="translate(0 0)" d="m93.13539,353.05264c1.1295,-0.3962 2.29541,-0.18322 3.43836,-0.20123c-0.05066,4.27676 0.12981,8.56526 -0.07915,12.84123c-0.09023,2.27071 -1.82049,3.92832 -3.68057,4.79119c0,-0.59117 -0.06253,-1.73122 -0.08469,-2.30986c-2.84947,0 -5.69894,-0.05873 -8.54841,0.11197a6.5609,6.4903 0 0 1 -2.89063,2.07339c-0.46858,-5.80048 -0.23112,-11.63698 -0.35539,-17.4492a12.2361,12.10443 0 0 1 5.1987,0.64363c2.33182,0.05324 4.76495,0.3547 7.0002,-0.5019m-8.36319,2.62227c0,1.3311 0.0562,2.66221 0.10131,4.00506c2.52336,-0.1566 5.08076,-0.10571 7.5875,-0.10022l0,-3.9338c-2.57402,0.03524 -5.14488,0 -7.71731,0m0.2517,5.90697q-0.03404,2.32238 -0.14168,4.66043a68.38727,67.65137 0 0 0 7.90332,-0.11745c-0.06728,-1.54799 -0.10686,-3.08973 -0.16939,-4.63146q-3.75893,0.12371 -7.58671,0.11823l-0.00554,-0.02975z" class="cls-1"/>
    <path stroke="null" fill="#9252f8" transform="translate(0 0)" d="m256.96566,352.47949a9.44203,9.34043 0 0 1 4.78157,0.63188c2.45371,0.26622 5.01348,0.4698 7.4015,-0.34844a12.83924,12.70108 0 0 1 3.42095,-0.20045c0.03958,4.21177 -0.07915,8.42354 -0.18126,12.64078c0,2.3631 -1.77775,4.1828 -3.74784,5.03314c0,-0.76812 -0.03404,-1.52999 -0.03958,-2.2801c-2.86213,-0.06499 -5.72427,-0.18322 -8.58086,0a25.74179,25.46479 0 0 1 -2.92862,2.27071c-0.38389,-5.90697 -0.15197,-11.81393 -0.12427,-17.7209m3.86974,2.75852q0,1.96768 -0.03404,3.94007c2.59143,0.07047 5.18841,0.02975 7.79093,0.0415l0,-3.88682c-2.58589,-0.14799 -5.171,-0.10649 -7.75689,-0.09474m-0.14643,6.07061l0,4.72542l7.90332,0l0,-4.72542l-7.90332,0z" class="cls-1"/>
    <path stroke="null" fill="#9252f8" transform="translate(0 0)" d="m115.14042,364.88224l11.47703,0c0,0.45492 0,1.36477 0.03404,1.82596c-3.85549,0.1472 -7.70544,0.0783 -11.55618,0.08222l0.04512,-1.90818z" class="cls-1"/>
    <path stroke="null" fill="#9252f8" transform="translate(0 0)" d="m167.06014,367.03471c9.03203,0.08848 18.06485,-0.1566 27.09687,0.11823c0.02849,0.43143 0.09023,1.29352 0.11873,1.7226c-9.08348,0.2302 -18.1717,0 -27.26072,0.14172q0.02849,-0.99598 0.04512,-1.98256z" class="cls-1"/>
    <g stroke="null">
     <path stroke="null" fill="#9252f8" transform="translate(0 0)" d="m310.45891,343.08816c0.95932,-4.07161 2.14343,-8.43606 5.47019,-11.14995c0.67675,1.76958 1.3535,3.53917 2.08724,5.30954a14.04472,13.89359 0 0 0 -6.76749,5.7809c3.10117,0.17696 6.20314,0.11823 9.3051,0.11823c-0.0562,4.54141 0.1124,9.02566 -0.0562,13.56864c-0.11319,2.30046 -1.46669,4.54141 -3.66632,5.1913c-0.1124,-1.00303 -0.22558,-1.94654 -0.28178,-2.94957l-6.7105,0l0,3.95259c4.62406,0 9.24811,0 13.81597,0.17696c-0.1124,0.41264 -0.33798,1.29743 -0.45117,1.76958c-4.51166,0.29519 -8.96633,0.05873 -13.47799,0.11823c-0.0562,2.71388 0.22558,5.60395 -0.62055,8.2591c-0.50736,1.59263 -2.08645,2.30046 -3.38295,3.12653c-0.11319,-3.83671 0.0562,-7.61 -0.05699,-11.44514c-5.01902,0 -10.03805,0.05951 -15.05707,-0.17696c0.11319,-0.4698 0.28178,-1.35616 0.39576,-1.82831c4.90742,-0.29519 9.81484,0.11823 14.77529,0.05873c0.0562,-1.35694 0.0562,-2.65438 0.1124,-3.95259c-2.42442,-0.11823 -4.84964,-0.05873 -7.33105,-0.11823c-0.90233,1.29822 -1.97405,2.4782 -3.49614,2.83212c-0.11319,-6.25305 0.16859,-12.44973 0.0562,-18.70122c5.18841,0 10.26363,-0.05873 15.33885,0.05951m-11.36147,6.19433c2.25583,0.05873 4.51166,0.11745 6.7667,0.11745c0,-1.5339 0,-3.0678 0.05699,-4.60092l-6.76749,0c-0.0562,1.47439 -0.0562,2.94957 -0.0562,4.48347m10.771,-4.42083c0,1.5339 -0.0562,3.0678 -0.1124,4.6017c2.25504,0 4.51166,0.11745 6.82369,0.11745c0,-1.5339 0.0562,-3.06702 0.1124,-4.60092c-2.25583,-0.05951 -4.56786,0 -6.82369,-0.11823m-10.79791,11.67691c2.25583,0 4.56786,0 6.82369,0.05873l0,-5.30954l-6.76749,0c0.05699,1.71086 0,3.48123 -0.0562,5.25081m10.77179,-5.25081l0,5.31267l6.7667,0l0,-5.1913c-2.3144,-0.06186 -4.57182,-0.12137 -6.77066,-0.12137l0.00396,0z" class="cls-1"/>
     <path stroke="null" fill="#9252f8" transform="translate(0 0)" d="m297.28961,333.82994a9.67791,9.57377 0 0 1 8.96633,4.54141a14.1682,14.01574 0 0 1 -2.59381,4.12955a38.19002,37.77906 0 0 1 -1.97405,-3.24476c-1.07172,-2.12272 -2.98561,-3.59789 -4.39847,-5.4262z" class="cls-1"/>
    </g>
   </g>
  </g>
 </g>
</svg>